<mxfile host="app.diagrams.net" agent="Mozilla/5.0 (Windows NT 10.0; Win64; x64) AppleWebKit/537.36 (KHTML, like Gecko) Chrome/139.0.0.0 Safari/537.36" version="28.2.1">
  <diagram name="Página-1" id="ov01r3VqUNew-LuSt0n_">
    <mxGraphModel dx="1965" dy="1249" grid="1" gridSize="10" guides="1" tooltips="1" connect="1" arrows="1" fold="1" page="1" pageScale="1" pageWidth="827" pageHeight="1169" math="0" shadow="0">
      <root>
        <mxCell id="0" />
        <mxCell id="1" parent="0" />
        <mxCell id="sL7_nI7Hm1iqcbf_yprJ-4" value="" style="edgeStyle=orthogonalEdgeStyle;rounded=0;orthogonalLoop=1;jettySize=auto;html=1;exitX=0;exitY=0;exitDx=100;exitDy=55;exitPerimeter=0;entryX=0;entryY=0.5;entryDx=0;entryDy=0;" parent="1" source="sL7_nI7Hm1iqcbf_yprJ-16" target="sL7_nI7Hm1iqcbf_yprJ-3" edge="1">
          <mxGeometry relative="1" as="geometry">
            <mxPoint x="255" y="-79.99999999999989" as="sourcePoint" />
          </mxGeometry>
        </mxCell>
        <mxCell id="sL7_nI7Hm1iqcbf_yprJ-11" value="Dados" style="edgeLabel;html=1;align=center;verticalAlign=middle;resizable=0;points=[];" parent="sL7_nI7Hm1iqcbf_yprJ-4" vertex="1" connectable="0">
          <mxGeometry x="-0.646" y="-1" relative="1" as="geometry">
            <mxPoint x="3" y="-1" as="offset" />
          </mxGeometry>
        </mxCell>
        <mxCell id="sL7_nI7Hm1iqcbf_yprJ-37" style="edgeStyle=orthogonalEdgeStyle;rounded=0;orthogonalLoop=1;jettySize=auto;html=1;exitX=1;exitY=0.5;exitDx=0;exitDy=0;entryX=0;entryY=0.5;entryDx=0;entryDy=0;" parent="1" source="sL7_nI7Hm1iqcbf_yprJ-3" target="sL7_nI7Hm1iqcbf_yprJ-31" edge="1">
          <mxGeometry relative="1" as="geometry" />
        </mxCell>
        <mxCell id="sL7_nI7Hm1iqcbf_yprJ-51" value="" style="edgeStyle=orthogonalEdgeStyle;rounded=0;orthogonalLoop=1;jettySize=auto;html=1;" parent="1" source="sL7_nI7Hm1iqcbf_yprJ-3" target="sL7_nI7Hm1iqcbf_yprJ-50" edge="1">
          <mxGeometry relative="1" as="geometry" />
        </mxCell>
        <mxCell id="sL7_nI7Hm1iqcbf_yprJ-3" value="Cadastrar" style="ellipse;whiteSpace=wrap;html=1;" parent="1" vertex="1">
          <mxGeometry x="380" y="284" width="80" height="80" as="geometry" />
        </mxCell>
        <mxCell id="sL7_nI7Hm1iqcbf_yprJ-16" value="" style="html=1;dashed=0;whiteSpace=wrap;shape=mxgraph.dfd.externalEntity" parent="1" vertex="1">
          <mxGeometry x="120" y="270" width="100" height="100" as="geometry" />
        </mxCell>
        <mxCell id="sL7_nI7Hm1iqcbf_yprJ-17" value="Médico" style="autosize=1;part=1;resizable=0;strokeColor=inherit;fillColor=inherit;gradientColor=inherit;" parent="sL7_nI7Hm1iqcbf_yprJ-16" vertex="1">
          <mxGeometry width="60" height="30" relative="1" as="geometry">
            <mxPoint x="-5" y="10" as="offset" />
          </mxGeometry>
        </mxCell>
        <mxCell id="sL7_nI7Hm1iqcbf_yprJ-18" value="" style="html=1;dashed=0;whiteSpace=wrap;shape=mxgraph.dfd.externalEntity" parent="1" vertex="1">
          <mxGeometry x="-500" y="612.5" width="100" height="100" as="geometry" />
        </mxCell>
        <mxCell id="sL7_nI7Hm1iqcbf_yprJ-19" value="Adminstrador" style="autosize=1;part=1;resizable=0;strokeColor=inherit;fillColor=inherit;gradientColor=inherit;" parent="sL7_nI7Hm1iqcbf_yprJ-18" vertex="1">
          <mxGeometry width="90" height="30" relative="1" as="geometry">
            <mxPoint x="-20" y="10" as="offset" />
          </mxGeometry>
        </mxCell>
        <mxCell id="sL7_nI7Hm1iqcbf_yprJ-42" style="edgeStyle=orthogonalEdgeStyle;rounded=0;orthogonalLoop=1;jettySize=auto;html=1;" parent="1" source="sL7_nI7Hm1iqcbf_yprJ-20" target="sL7_nI7Hm1iqcbf_yprJ-40" edge="1">
          <mxGeometry relative="1" as="geometry" />
        </mxCell>
        <mxCell id="sL7_nI7Hm1iqcbf_yprJ-20" value="" style="html=1;dashed=0;whiteSpace=wrap;shape=mxgraph.dfd.externalEntity" parent="1" vertex="1">
          <mxGeometry x="121.57" y="866" width="100" height="100" as="geometry" />
        </mxCell>
        <mxCell id="sL7_nI7Hm1iqcbf_yprJ-21" value="Paciente" style="autosize=1;part=1;resizable=0;strokeColor=inherit;fillColor=inherit;gradientColor=inherit;" parent="sL7_nI7Hm1iqcbf_yprJ-20" vertex="1">
          <mxGeometry width="70" height="30" relative="1" as="geometry">
            <mxPoint x="-10" y="10" as="offset" />
          </mxGeometry>
        </mxCell>
        <mxCell id="sL7_nI7Hm1iqcbf_yprJ-79" value="" style="edgeStyle=orthogonalEdgeStyle;rounded=0;orthogonalLoop=1;jettySize=auto;html=1;" parent="1" source="sL7_nI7Hm1iqcbf_yprJ-31" target="sL7_nI7Hm1iqcbf_yprJ-78" edge="1">
          <mxGeometry relative="1" as="geometry" />
        </mxCell>
        <mxCell id="sL7_nI7Hm1iqcbf_yprJ-31" value="Login" style="ellipse;whiteSpace=wrap;html=1;dashed=0;" parent="1" vertex="1">
          <mxGeometry x="520" y="284" width="80" height="80" as="geometry" />
        </mxCell>
        <mxCell id="sL7_nI7Hm1iqcbf_yprJ-39" style="edgeStyle=orthogonalEdgeStyle;rounded=0;orthogonalLoop=1;jettySize=auto;html=1;exitX=1;exitY=0.5;exitDx=0;exitDy=0;entryX=0;entryY=0.5;entryDx=0;entryDy=0;" parent="1" source="sL7_nI7Hm1iqcbf_yprJ-40" target="sL7_nI7Hm1iqcbf_yprJ-41" edge="1">
          <mxGeometry relative="1" as="geometry" />
        </mxCell>
        <mxCell id="sL7_nI7Hm1iqcbf_yprJ-53" value="" style="edgeStyle=orthogonalEdgeStyle;rounded=0;orthogonalLoop=1;jettySize=auto;html=1;" parent="1" source="sL7_nI7Hm1iqcbf_yprJ-40" target="sL7_nI7Hm1iqcbf_yprJ-52" edge="1">
          <mxGeometry relative="1" as="geometry" />
        </mxCell>
        <mxCell id="sL7_nI7Hm1iqcbf_yprJ-40" value="Cadastrar" style="ellipse;whiteSpace=wrap;html=1;" parent="1" vertex="1">
          <mxGeometry x="380" y="876" width="80" height="80" as="geometry" />
        </mxCell>
        <mxCell id="sL7_nI7Hm1iqcbf_yprJ-72" style="edgeStyle=orthogonalEdgeStyle;rounded=0;orthogonalLoop=1;jettySize=auto;html=1;entryX=0;entryY=0.5;entryDx=0;entryDy=0;" parent="1" source="sL7_nI7Hm1iqcbf_yprJ-41" target="sL7_nI7Hm1iqcbf_yprJ-61" edge="1">
          <mxGeometry relative="1" as="geometry" />
        </mxCell>
        <mxCell id="CtMHBZtNd6OkFkV52FsI-3" value="" style="edgeStyle=orthogonalEdgeStyle;rounded=0;orthogonalLoop=1;jettySize=auto;html=1;" edge="1" parent="1" source="sL7_nI7Hm1iqcbf_yprJ-41" target="CtMHBZtNd6OkFkV52FsI-2">
          <mxGeometry relative="1" as="geometry" />
        </mxCell>
        <mxCell id="sL7_nI7Hm1iqcbf_yprJ-41" value="Login" style="ellipse;whiteSpace=wrap;html=1;dashed=0;" parent="1" vertex="1">
          <mxGeometry x="590" y="876" width="80" height="80" as="geometry" />
        </mxCell>
        <mxCell id="sL7_nI7Hm1iqcbf_yprJ-44" value="" style="edgeStyle=orthogonalEdgeStyle;rounded=0;orthogonalLoop=1;jettySize=auto;html=1;exitX=0;exitY=0;exitDx=100;exitDy=55;exitPerimeter=0;entryX=0;entryY=0.5;entryDx=0;entryDy=0;" parent="1" source="sL7_nI7Hm1iqcbf_yprJ-18" target="sL7_nI7Hm1iqcbf_yprJ-47" edge="1">
          <mxGeometry relative="1" as="geometry">
            <mxPoint x="-400" y="663.5" as="sourcePoint" />
          </mxGeometry>
        </mxCell>
        <mxCell id="sL7_nI7Hm1iqcbf_yprJ-45" value="Dados" style="edgeLabel;html=1;align=center;verticalAlign=middle;resizable=0;points=[];" parent="sL7_nI7Hm1iqcbf_yprJ-44" vertex="1" connectable="0">
          <mxGeometry x="-0.646" y="-1" relative="1" as="geometry">
            <mxPoint x="3" y="-1" as="offset" />
          </mxGeometry>
        </mxCell>
        <mxCell id="sL7_nI7Hm1iqcbf_yprJ-55" value="" style="edgeStyle=orthogonalEdgeStyle;rounded=0;orthogonalLoop=1;jettySize=auto;html=1;" parent="1" source="sL7_nI7Hm1iqcbf_yprJ-47" target="sL7_nI7Hm1iqcbf_yprJ-54" edge="1">
          <mxGeometry relative="1" as="geometry" />
        </mxCell>
        <mxCell id="sL7_nI7Hm1iqcbf_yprJ-47" value="Cadastrar" style="ellipse;whiteSpace=wrap;html=1;" parent="1" vertex="1">
          <mxGeometry x="-240" y="627.5" width="80" height="80" as="geometry" />
        </mxCell>
        <mxCell id="sL7_nI7Hm1iqcbf_yprJ-48" style="edgeStyle=orthogonalEdgeStyle;rounded=0;orthogonalLoop=1;jettySize=auto;html=1;exitX=1;exitY=0.5;exitDx=0;exitDy=0;entryX=0;entryY=0.5;entryDx=0;entryDy=0;" parent="1" source="sL7_nI7Hm1iqcbf_yprJ-47" target="sL7_nI7Hm1iqcbf_yprJ-49" edge="1">
          <mxGeometry relative="1" as="geometry" />
        </mxCell>
        <mxCell id="CtMHBZtNd6OkFkV52FsI-9" value="" style="edgeStyle=orthogonalEdgeStyle;rounded=0;orthogonalLoop=1;jettySize=auto;html=1;" edge="1" parent="1" source="sL7_nI7Hm1iqcbf_yprJ-49" target="CtMHBZtNd6OkFkV52FsI-8">
          <mxGeometry relative="1" as="geometry" />
        </mxCell>
        <mxCell id="sL7_nI7Hm1iqcbf_yprJ-49" value="Login" style="ellipse;whiteSpace=wrap;html=1;dashed=0;" parent="1" vertex="1">
          <mxGeometry x="-30" y="627.5" width="80" height="80" as="geometry" />
        </mxCell>
        <mxCell id="sL7_nI7Hm1iqcbf_yprJ-57" style="edgeStyle=orthogonalEdgeStyle;rounded=0;orthogonalLoop=1;jettySize=auto;html=1;" parent="1" source="sL7_nI7Hm1iqcbf_yprJ-50" target="sL7_nI7Hm1iqcbf_yprJ-31" edge="1">
          <mxGeometry relative="1" as="geometry" />
        </mxCell>
        <mxCell id="sL7_nI7Hm1iqcbf_yprJ-69" style="edgeStyle=orthogonalEdgeStyle;rounded=0;orthogonalLoop=1;jettySize=auto;html=1;entryX=0.5;entryY=0;entryDx=0;entryDy=0;" parent="1" source="sL7_nI7Hm1iqcbf_yprJ-50" target="sL7_nI7Hm1iqcbf_yprJ-61" edge="1">
          <mxGeometry relative="1" as="geometry">
            <Array as="points">
              <mxPoint x="420" y="706" />
              <mxPoint x="818" y="706" />
            </Array>
            <mxPoint x="780.0000000000002" y="706.0000000000005" as="targetPoint" />
          </mxGeometry>
        </mxCell>
        <mxCell id="sL7_nI7Hm1iqcbf_yprJ-50" value="Médicos" style="whiteSpace=wrap;html=1;" parent="1" vertex="1">
          <mxGeometry x="360" y="566" width="120" height="60" as="geometry" />
        </mxCell>
        <mxCell id="sL7_nI7Hm1iqcbf_yprJ-58" style="edgeStyle=orthogonalEdgeStyle;rounded=0;orthogonalLoop=1;jettySize=auto;html=1;entryX=0.5;entryY=0;entryDx=0;entryDy=0;" parent="1" source="sL7_nI7Hm1iqcbf_yprJ-52" target="sL7_nI7Hm1iqcbf_yprJ-41" edge="1">
          <mxGeometry relative="1" as="geometry" />
        </mxCell>
        <mxCell id="sL7_nI7Hm1iqcbf_yprJ-52" value="Pacientes" style="whiteSpace=wrap;html=1;" parent="1" vertex="1">
          <mxGeometry x="360" y="726" width="120" height="60" as="geometry" />
        </mxCell>
        <mxCell id="sL7_nI7Hm1iqcbf_yprJ-56" style="edgeStyle=orthogonalEdgeStyle;rounded=0;orthogonalLoop=1;jettySize=auto;html=1;entryX=0.5;entryY=0;entryDx=0;entryDy=0;" parent="1" source="sL7_nI7Hm1iqcbf_yprJ-54" target="sL7_nI7Hm1iqcbf_yprJ-49" edge="1">
          <mxGeometry relative="1" as="geometry" />
        </mxCell>
        <mxCell id="sL7_nI7Hm1iqcbf_yprJ-54" value="Administradores" style="whiteSpace=wrap;html=1;" parent="1" vertex="1">
          <mxGeometry x="-260" y="477.5" width="120" height="60" as="geometry" />
        </mxCell>
        <mxCell id="sL7_nI7Hm1iqcbf_yprJ-77" value="" style="edgeStyle=orthogonalEdgeStyle;rounded=0;orthogonalLoop=1;jettySize=auto;html=1;" parent="1" source="sL7_nI7Hm1iqcbf_yprJ-61" target="sL7_nI7Hm1iqcbf_yprJ-76" edge="1">
          <mxGeometry relative="1" as="geometry" />
        </mxCell>
        <mxCell id="sL7_nI7Hm1iqcbf_yprJ-61" value="Pesquisar&amp;nbsp;&lt;div&gt;MÉDICO&lt;br&gt;(Nome, especialidade, localização)&lt;/div&gt;" style="ellipse;whiteSpace=wrap;html=1;dashed=0;" parent="1" vertex="1">
          <mxGeometry x="765.5" y="816" width="105" height="100" as="geometry" />
        </mxCell>
        <mxCell id="sL7_nI7Hm1iqcbf_yprJ-86" value="" style="edgeStyle=orthogonalEdgeStyle;rounded=0;orthogonalLoop=1;jettySize=auto;html=1;" parent="1" source="sL7_nI7Hm1iqcbf_yprJ-76" target="sL7_nI7Hm1iqcbf_yprJ-85" edge="1">
          <mxGeometry relative="1" as="geometry" />
        </mxCell>
        <mxCell id="sL7_nI7Hm1iqcbf_yprJ-76" value="Verificar horários" style="ellipse;whiteSpace=wrap;html=1;dashed=0;" parent="1" vertex="1">
          <mxGeometry x="963" y="826" width="80" height="80" as="geometry" />
        </mxCell>
        <mxCell id="sL7_nI7Hm1iqcbf_yprJ-81" value="" style="edgeStyle=orthogonalEdgeStyle;rounded=0;orthogonalLoop=1;jettySize=auto;html=1;" parent="1" source="sL7_nI7Hm1iqcbf_yprJ-78" target="sL7_nI7Hm1iqcbf_yprJ-80" edge="1">
          <mxGeometry relative="1" as="geometry" />
        </mxCell>
        <mxCell id="sL7_nI7Hm1iqcbf_yprJ-78" value="Gerenciar agenda de atendimentos" style="ellipse;whiteSpace=wrap;html=1;dashed=0;" parent="1" vertex="1">
          <mxGeometry x="670" y="284" width="80" height="80" as="geometry" />
        </mxCell>
        <mxCell id="sL7_nI7Hm1iqcbf_yprJ-82" style="edgeStyle=orthogonalEdgeStyle;rounded=0;orthogonalLoop=1;jettySize=auto;html=1;exitX=1;exitY=1;exitDx=0;exitDy=0;" parent="1" source="sL7_nI7Hm1iqcbf_yprJ-80" target="sL7_nI7Hm1iqcbf_yprJ-76" edge="1">
          <mxGeometry relative="1" as="geometry">
            <Array as="points">
              <mxPoint x="1003" y="566" />
            </Array>
          </mxGeometry>
        </mxCell>
        <mxCell id="sL7_nI7Hm1iqcbf_yprJ-80" value="Horários disponíveis" style="whiteSpace=wrap;html=1;dashed=0;" parent="1" vertex="1">
          <mxGeometry x="648.5" y="565" width="120" height="60" as="geometry" />
        </mxCell>
        <mxCell id="sL7_nI7Hm1iqcbf_yprJ-85" value="Agendar horario" style="ellipse;whiteSpace=wrap;html=1;dashed=0;" parent="1" vertex="1">
          <mxGeometry x="1123" y="826" width="80" height="80" as="geometry" />
        </mxCell>
        <mxCell id="sL7_nI7Hm1iqcbf_yprJ-89" style="edgeStyle=orthogonalEdgeStyle;rounded=0;orthogonalLoop=1;jettySize=auto;html=1;entryX=1;entryY=0.5;entryDx=0;entryDy=0;exitX=0.5;exitY=0;exitDx=0;exitDy=0;" parent="1" source="sL7_nI7Hm1iqcbf_yprJ-85" target="sL7_nI7Hm1iqcbf_yprJ-80" edge="1">
          <mxGeometry relative="1" as="geometry">
            <mxPoint x="1210" y="806" as="sourcePoint" />
          </mxGeometry>
        </mxCell>
        <mxCell id="CtMHBZtNd6OkFkV52FsI-6" value="" style="edgeStyle=orthogonalEdgeStyle;rounded=0;orthogonalLoop=1;jettySize=auto;html=1;" edge="1" parent="1" source="CtMHBZtNd6OkFkV52FsI-2" target="CtMHBZtNd6OkFkV52FsI-5">
          <mxGeometry relative="1" as="geometry" />
        </mxCell>
        <mxCell id="CtMHBZtNd6OkFkV52FsI-2" value="Verificar Agendamentos" style="ellipse;whiteSpace=wrap;html=1;dashed=0;" vertex="1" parent="1">
          <mxGeometry x="590" y="996" width="80" height="80" as="geometry" />
        </mxCell>
        <mxCell id="CtMHBZtNd6OkFkV52FsI-7" style="edgeStyle=orthogonalEdgeStyle;rounded=0;orthogonalLoop=1;jettySize=auto;html=1;entryX=0.75;entryY=1;entryDx=0;entryDy=0;" edge="1" parent="1" source="CtMHBZtNd6OkFkV52FsI-5" target="sL7_nI7Hm1iqcbf_yprJ-80">
          <mxGeometry relative="1" as="geometry" />
        </mxCell>
        <mxCell id="CtMHBZtNd6OkFkV52FsI-5" value="Cancelar agendamentos" style="ellipse;whiteSpace=wrap;html=1;dashed=0;" vertex="1" parent="1">
          <mxGeometry x="698" y="996" width="80" height="80" as="geometry" />
        </mxCell>
        <mxCell id="CtMHBZtNd6OkFkV52FsI-8" value="Gerenciar usuários" style="ellipse;whiteSpace=wrap;html=1;dashed=0;" vertex="1" parent="1">
          <mxGeometry x="130" y="627.5" width="80" height="80" as="geometry" />
        </mxCell>
        <mxCell id="CtMHBZtNd6OkFkV52FsI-11" value="" style="endArrow=classic;startArrow=classic;html=1;rounded=0;entryX=0;entryY=0.5;entryDx=0;entryDy=0;exitX=1;exitY=0.5;exitDx=0;exitDy=0;" edge="1" parent="1" source="CtMHBZtNd6OkFkV52FsI-8" target="sL7_nI7Hm1iqcbf_yprJ-50">
          <mxGeometry width="50" height="50" relative="1" as="geometry">
            <mxPoint x="190" y="696" as="sourcePoint" />
            <mxPoint x="240" y="646" as="targetPoint" />
          </mxGeometry>
        </mxCell>
        <mxCell id="CtMHBZtNd6OkFkV52FsI-12" value="" style="endArrow=classic;startArrow=classic;html=1;rounded=0;entryX=0;entryY=0.5;entryDx=0;entryDy=0;exitX=1;exitY=0.5;exitDx=0;exitDy=0;" edge="1" parent="1" source="CtMHBZtNd6OkFkV52FsI-8" target="sL7_nI7Hm1iqcbf_yprJ-52">
          <mxGeometry width="50" height="50" relative="1" as="geometry">
            <mxPoint x="210" y="636" as="sourcePoint" />
            <mxPoint x="370" y="606" as="targetPoint" />
          </mxGeometry>
        </mxCell>
      </root>
    </mxGraphModel>
  </diagram>
</mxfile>
